<svg width="161" height="40" viewBox="0 0 191 43" fill="none" xmlns="http://www.w3.org/2000/svg">
<g filter="url(#filter0_d)">
<path d="M37.65 25C37.65 20.95 35.4 18 31.35 16.7C34.35 15.25 36.15 12.55 36.15 9.5C36.15 2.6 30.15 0.949997 23 0.949997H4V5.05L5 5.15C7.8 5.45 8.4 6.15 8.4 9.35V26.6C8.4 29.8 7.8 30.5 5 30.8L4 30.9V35H24C29 35 37.65 34.45 37.65 25ZM27.65 10.25C27.65 12.95 25.25 14.5 21.15 14.5H17.15V8.3C17.15 6.7 17.15 5.7 21.25 5.7C25.3 5.7 27.65 7.4 27.65 10.25ZM28.55 24.5C28.55 28.3 25.9 30.55 21.5 30.55C17.5 30.55 17.15 29.5 17.15 28V19.1H21.3C26.4 19.1 28.55 20.7 28.55 24.5ZM75.1863 23.2L71.6863 21.55C67.3363 27.8 62.9863 30.5 57.2863 30.5C53.1363 30.5 53.1363 29.9 53.1363 24.85V18.95H54.5363C57.4363 18.95 59.0363 19.4 59.6863 24.45H63.5863V8.9H59.6863C59.5863 14.2 58.2363 14.35 54.5863 14.35H53.1363V10.1C53.1363 6.6 53.1363 5.45 58.4363 5.45C62.8363 5.45 67.0363 8.1 70.3863 12.95L73.7863 11.25L68.8363 0.949997H39.9863V5.05L40.9863 5.15C43.7863 5.45 44.3863 6.15 44.3863 9.35V26.6C44.3863 29.8 43.7863 30.5 40.9863 30.8L39.9863 30.9V35H69.6863L75.1863 23.2ZM114.973 35V30.9L113.973 30.8C111.173 30.5 110.573 29.8 110.573 26.6V9.35C110.573 6.15 111.173 5.45 113.973 5.15L114.973 5.05V0.949997H97.4227V5.05L98.4227 5.15C101.223 5.45 101.823 6.15 101.823 9.35V14.25H89.1227V9.35C89.1227 6.15 89.7227 5.45 92.5227 5.15L93.5227 5.05V0.949997H75.9727V5.05L76.9727 5.15C79.7727 5.45 80.3727 6.15 80.3727 9.35V26.6C80.3727 29.8 79.7727 30.5 76.9727 30.8L75.9727 30.9V35H93.5227V30.9L92.5227 30.8C89.7227 30.5 89.1227 29.8 89.1227 26.6V19.1H101.823V26.6C101.823 29.8 101.223 30.5 98.4227 30.8L97.4227 30.9V35H114.973ZM154.138 35V30.9L153.338 30.8C150.688 30.3 150.288 29.35 148.388 25.35L138.588 0.949997H130.838L120.938 24.7C118.988 29.35 117.888 30.45 115.088 30.8L114.288 30.9V35H129.738V30.9L128.938 30.8C126.588 30.5 125.238 30.15 125.238 28.7C125.238 28.3 125.438 27.85 125.688 27.2L127.288 22.9H138.038L139.538 27.15C139.838 28.05 139.988 28.65 140.038 29.2C140.038 30.2 139.288 30.65 137.138 30.8L135.888 30.9V35H154.138ZM136.388 18.65H128.888L132.688 8.9L136.388 18.65ZM186.625 25C186.625 20.95 184.375 18 180.325 16.7C183.325 15.25 185.125 12.55 185.125 9.5C185.125 2.6 179.125 0.949997 171.975 0.949997H152.975V5.05L153.975 5.15C156.775 5.45 157.375 6.15 157.375 9.35V26.6C157.375 29.8 156.775 30.5 153.975 30.8L152.975 30.9V35H172.975C177.975 35 186.625 34.45 186.625 25ZM176.625 10.25C176.625 12.95 174.225 14.5 170.125 14.5H166.125V8.3C166.125 6.7 166.125 5.7 170.225 5.7C174.275 5.7 176.625 7.4 176.625 10.25ZM177.525 24.5C177.525 28.3 174.875 30.55 170.475 30.55C166.475 30.55 166.125 29.5 166.125 28V19.1H170.275C175.375 19.1 177.525 20.7 177.525 24.5Z" fill="#393838"/>
</g>
<defs>
<filter id="filter0_d" x="0" y="0.950012" width="190.625" height="42.05" filterUnits="userSpaceOnUse" color-interpolation-filters="sRGB">
<feFlood flood-opacity="0" result="BackgroundImageFix"/>
<feColorMatrix in="SourceAlpha" type="matrix" values="0 0 0 0 0 0 0 0 0 0 0 0 0 0 0 0 0 0 127 0"/>
<feOffset dy="4"/>
<feGaussianBlur stdDeviation="2"/>
<feColorMatrix type="matrix" values="0 0 0 0 0 0 0 0 0 0 0 0 0 0 0 0 0 0 0.25 0"/>
<feBlend mode="normal" in2="BackgroundImageFix" result="effect1_dropShadow"/>
<feBlend mode="normal" in="SourceGraphic" in2="effect1_dropShadow" result="shape"/>
</filter>
</defs>
</svg>
