<svg width="153" height="50" viewBox="0 0 174 39" fill="none" xmlns="http://www.w3.org/2000/svg">
<path d="M49.3093 35.8284H55.4602V36.5576H52.7842V43.9304H51.9865V36.5576H49.3109L49.3093 35.8284Z" fill="#011A4C"/>
<path d="M58.0198 35.84H63.4408V36.5576H58.819V39.4512H62.9543V40.1688H58.819V43.2128H63.5912V43.9304H58.0198V35.84Z" fill="#011A4C"/>
<path d="M71.4668 36.7428C70.9793 36.5399 70.4521 36.4511 69.9252 36.4832C69.3983 36.5153 68.8857 36.6674 68.4263 36.928C67.9124 37.2221 67.4851 37.6471 67.1875 38.16C66.8836 38.6769 66.7255 39.267 66.7301 39.8672C66.7248 40.4655 66.883 41.0538 67.1875 41.5684C67.4872 42.0801 67.9143 42.5049 68.4271 42.8012C68.9488 43.1063 69.5432 43.2643 70.1471 43.2584C70.5962 43.2581 71.0409 43.1697 71.456 42.998C71.8749 42.8279 72.2595 42.5829 72.591 42.2748L73.0776 42.7948C72.6733 43.1671 72.2067 43.465 71.6993 43.6748C71.1971 43.8876 70.6576 43.9978 70.1124 43.9988C69.3805 44.0032 68.6601 43.8153 68.023 43.4538C67.3858 43.0924 66.8542 42.5699 66.4809 41.9384C66.1082 41.3124 65.914 40.5958 65.9193 39.8668C65.9132 39.1403 66.1098 38.4266 66.4868 37.8064C66.8611 37.1856 67.39 36.673 68.0215 36.3192C68.5816 36.0054 69.2044 35.8208 69.8446 35.7788C70.4848 35.7368 71.1263 35.8385 71.7224 36.0764C72.2195 36.2728 72.6753 36.5613 73.066 36.9268L72.591 37.4824C72.2664 37.1666 71.8849 36.9156 71.4668 36.7428Z" fill="#011A4C"/>
<path d="M75.9851 35.84H76.7827V39.544H81.8444V35.84H82.642V43.9304H81.8444V40.2616H76.7843V43.9304H75.9867L75.9851 35.84Z" fill="#011A4C"/>
<path d="M92.2246 35.84H93.0122V43.9304H92.1651L87.1509 37.08V43.932H86.3533V35.84H87.1988L92.2262 42.692L92.2246 35.84Z" fill="#011A4C"/>
<path d="M102.295 36.32C102.926 36.674 103.455 37.1865 103.829 37.8072C104.206 38.4275 104.403 39.1412 104.397 39.8676C104.402 40.5974 104.206 41.3145 103.829 41.9392C103.449 42.5714 102.912 43.0944 102.271 43.4574C101.629 43.8204 100.905 44.0111 100.169 44.0111C99.4327 44.0111 98.7089 43.8204 98.0676 43.4574C97.4263 43.0944 96.8894 42.5714 96.5088 41.9392C96.1327 41.3144 95.9363 40.5974 95.9413 39.8676C95.9354 39.1412 96.1319 38.4275 96.5088 37.8072C96.8832 37.1863 97.4122 36.6738 98.0438 36.32C98.6946 35.9595 99.4259 35.7704 100.169 35.7704C100.913 35.7704 101.644 35.9595 102.295 36.32V36.32ZM98.4662 36.9392C97.9495 37.2318 97.5182 37.6549 97.2151 38.1664C96.907 38.6799 96.7465 39.2688 96.7513 39.868C96.7474 40.4707 96.9077 41.0631 97.2147 41.5812C97.516 42.0985 97.9474 42.5274 98.4658 42.8252C98.9862 43.1289 99.5785 43.2868 100.181 43.2824C100.777 43.2861 101.363 43.1281 101.878 42.8252C102.393 42.526 102.823 42.0973 103.123 41.5812C103.43 41.063 103.59 40.4707 103.586 39.868C103.591 39.269 103.431 38.6802 103.123 38.1668C102.821 37.6565 102.392 37.2336 101.878 36.9396C101.362 36.6403 100.776 36.4845 100.181 36.4884C99.5794 36.4839 98.9877 36.6396 98.4662 36.9396V36.9392Z" fill="#011A4C"/>
<path d="M107.317 35.84H108.115V43.2128H111.682V43.9304H107.317V35.84Z" fill="#011A4C"/>
<path d="M119.983 36.32C120.614 36.674 121.143 37.1865 121.517 37.8072C121.894 38.4276 122.091 39.1412 122.085 39.8676C122.09 40.5974 121.893 41.3144 121.517 41.9392C121.137 42.5716 120.6 43.0946 119.959 43.4577C119.317 43.8207 118.593 44.0115 117.857 44.0115C117.121 44.0115 116.397 43.8207 115.755 43.4577C115.114 43.0946 114.577 42.5716 114.197 41.9392C113.821 41.3145 113.624 40.5974 113.629 39.8676C113.623 39.1412 113.82 38.4275 114.197 37.8072C114.571 37.1865 115.1 36.674 115.731 36.32C116.382 35.9595 117.114 35.7704 117.857 35.7704C118.601 35.7704 119.332 35.9595 119.983 36.32V36.32ZM116.154 36.9392C115.638 37.2318 115.206 37.6549 114.903 38.1664C114.595 38.6797 114.435 39.2685 114.44 39.8676C114.436 40.4704 114.596 41.0628 114.903 41.5808C115.204 42.0981 115.636 42.527 116.154 42.8248C116.675 43.1285 117.267 43.2864 117.869 43.282C118.465 43.2857 119.052 43.1277 119.566 42.8248C120.082 42.5256 120.511 42.0969 120.811 41.5808C121.118 41.0627 121.278 40.4703 121.274 39.8676C121.279 39.2685 121.119 38.6798 120.811 38.1664C120.509 37.656 120.08 37.2331 119.566 36.9392C119.05 36.64 118.465 36.4842 117.869 36.488C117.268 36.4836 116.676 36.6395 116.155 36.9396L116.154 36.9392Z" fill="#011A4C"/>
<path d="M130.531 39.972H131.237V42.9352C130.83 43.2752 130.365 43.5398 129.865 43.7164C129.355 43.9036 128.816 43.9996 128.272 44C127.538 44.0038 126.816 43.8158 126.176 43.4545C125.536 43.0932 125.001 42.5712 124.624 41.9396C124.247 41.3149 124.051 40.5979 124.056 39.868C124.05 39.1416 124.247 38.4279 124.624 37.8076C125 37.1844 125.533 36.6715 126.17 36.3204C126.823 35.954 127.559 35.7646 128.307 35.7708C128.851 35.77 129.391 35.868 129.9 36.06C130.399 36.2446 130.86 36.5193 131.261 36.8704L130.798 37.4376C130.465 37.1284 130.075 36.8867 129.651 36.7256C129.222 36.5604 128.766 36.476 128.307 36.4768C127.701 36.4716 127.105 36.6295 126.581 36.934C126.065 37.2297 125.634 37.6545 125.33 38.1668C125.022 38.6801 124.862 39.2689 124.867 39.868C124.861 40.4732 125.021 41.0682 125.33 41.588C125.638 42.1071 126.076 42.5365 126.6 42.8339C127.124 43.1312 127.716 43.2863 128.319 43.2836C128.71 43.2827 129.1 43.2183 129.471 43.0928C129.849 42.9674 130.206 42.786 130.531 42.5544V39.972Z" fill="#011A4C"/>
<path d="M134.745 35.84H135.543V43.9304H134.745V35.84Z" fill="#011A4C"/>
<path d="M139.251 35.84H144.672V36.5576H140.05V39.4512H144.185V40.1688H140.05V43.2128H144.822V43.9304H139.251V35.84Z" fill="#011A4C"/>
<path d="M151.344 36.68C150.982 36.5731 150.608 36.5167 150.231 36.5124C149.763 36.4896 149.298 36.6041 148.894 36.842C148.738 36.9333 148.609 37.0646 148.521 37.2222C148.432 37.3799 148.387 37.5583 148.39 37.7392C148.378 38.0349 148.478 38.3242 148.669 38.5492C148.859 38.7608 149.092 38.9286 149.353 39.0412C149.716 39.1948 150.087 39.3283 150.465 39.4412C150.918 39.5684 151.361 39.7288 151.791 39.9212C152.127 40.0798 152.421 40.3158 152.648 40.61C152.881 40.9558 153.004 41.3637 153.002 41.7808C153 42.1978 152.873 42.6045 152.637 42.948C152.373 43.2953 152.018 43.5618 151.612 43.7176C151.129 43.907 150.613 43.9994 150.094 43.9896C149.527 43.9891 148.966 43.875 148.444 43.654C147.931 43.4459 147.461 43.1436 147.059 42.7628L147.43 42.1032C147.794 42.459 148.223 42.7418 148.693 42.9364C149.139 43.1303 149.62 43.2325 150.106 43.2372C150.623 43.2642 151.136 43.1331 151.577 42.8612C151.747 42.7536 151.886 42.6039 151.982 42.4264C152.077 42.249 152.125 42.0499 152.121 41.8484C152.133 41.5457 152.034 41.2491 151.842 41.0152C151.655 40.7985 151.421 40.6281 151.158 40.5172C150.888 40.4017 150.51 40.2668 150.023 40.1124C149.574 39.9791 149.133 39.8188 148.702 39.6324C148.37 39.4815 148.08 39.251 147.857 38.9612C147.613 38.6243 147.49 38.214 147.51 37.798C147.503 37.4104 147.625 37.0315 147.857 36.7216C148.109 36.3978 148.446 36.1512 148.83 36.0096C149.293 35.8356 149.784 35.7512 150.278 35.7608C150.727 35.7622 151.174 35.8284 151.604 35.9576C152.018 36.0752 152.414 36.2503 152.78 36.4776L152.432 37.1604C152.094 36.9493 151.728 36.7876 151.344 36.68Z" fill="#011A4C"/>
<path d="M49.3093 0.0399475H67.9736V2.51035H52.0611V12.4731H66.2986V14.9439H52.0611V25.4239H68.4921V27.8947H49.3093V0.0399475Z" fill="#011A4C"/>
<path d="M97.7044 1.87319C99.865 3.06313 101.664 4.81774 102.91 6.95071C104.157 9.08368 104.804 11.5154 104.783 13.9876C104.805 16.4572 104.156 18.8862 102.905 21.0136C101.654 23.141 99.8496 24.8866 97.6844 26.0628C95.4358 27.2953 92.9086 27.9265 90.3463 27.8956H79.2195V0.0399885H90.4261C92.9692 0.0110334 95.4766 0.642567 97.7044 1.87319V1.87319ZM96.2886 23.9104C98.0358 22.9177 99.4863 21.4739 100.489 19.729C101.492 17.984 102.011 16.0016 101.992 13.9876C102.013 11.9421 101.475 9.92994 100.436 8.16959C99.423 6.43978 97.9713 5.00977 96.2287 4.02479C94.4484 3.01209 92.4328 2.48963 90.3862 2.51039H81.9713V25.4248H90.5058C92.5333 25.444 94.5293 24.9213 96.2886 23.9104V23.9104Z" fill="#011A4C"/>
<path d="M134.535 27.8956L132.062 21.9976H118.423L115.95 27.8956H110.407L122.65 0H128.193L140.277 27.8956H134.535ZM120.337 17.4156H130.148L125.282 5.6996L120.337 17.4156ZM147.656 0H153V27.8956H147.656V0Z" fill="url(#paint0_linear)"/>
<path d="M11.4646 0L22.9288 6.64V19.9164L11.4646 26.5564L0 19.9164V6.64L11.4646 0ZM13.8072 28.0668V38.6888L22.9799 44L32.1525 38.6888V28.0668L22.9799 22.756L13.8072 28.0668ZM25.5765 13.3932V20.0332L31.3086 23.3532L37.0411 20.0332V13.3932L31.3086 10.0732L25.5765 13.3932Z" fill="url(#paint1_linear)"/>
<defs>
<linearGradient id="paint0_linear" x1="112.893" y1="31.4572" x2="154.623" y2="2.32479" gradientUnits="userSpaceOnUse">
<stop stop-color="#011A4C"/>
<stop offset="1" stop-color="#2795C9"/>
</linearGradient>
<linearGradient id="paint1_linear" x1="610.734" y1="3226.87" x2="3477.82" y2="1536.82" gradientUnits="userSpaceOnUse">
<stop stop-color="#011A4C"/>
<stop offset="1" stop-color="#2795C9"/>
</linearGradient>
</defs>
</svg>
