<?xml version="1.0" encoding="utf-8"?>
<!-- Generator: Adobe Illustrator 23.0.1, SVG Export Plug-In . SVG Version: 6.00 Build 0)  -->
<svg version="1.1" id="Lager_1" xmlns="http://www.w3.org/2000/svg" xmlns:xlink="http://www.w3.org/1999/xlink" x="0px" y="0px"
	 viewBox="0 0 131 34" style="enable-background:new 0 0 131 34;" xml:space="preserve">
<style type="text/css">
	.st0{fill:none;}
	.st1{fill:#8521FF;}
</style>
<rect x="-1.08" y="-6.22" class="st0" width="4.75" height="8.84"/>
<g>
	<g>
	</g>
</g>
<g>
	<g>
		<path class="st1" d="M7.03,12.95v-1.33h10.18v1.33H7.03z M17.58,4.56c-0.67-0.2-1.32-0.3-1.96-0.3c-0.64,0-1.21,0.1-1.7,0.31
			c-0.49,0.21-0.89,0.61-1.18,1.2c-0.3,0.59-0.44,1.44-0.44,2.55v21.79h-1.55V7.85c0-1.8,0.44-3.1,1.31-3.9c0.88-0.8,2-1.2,3.39-1.2
			c0.37,0,0.73,0.02,1.07,0.07c0.35,0.05,0.7,0.12,1.07,0.22V4.56z M21.5,30.12V2.89h1.52v27.23H21.5z"/>
		<path class="st1" d="M36.89,30.38c-1.65,0-3.1-0.39-4.33-1.18s-2.2-1.91-2.89-3.35c-0.69-1.44-1.04-3.14-1.04-5.09
			c0-1.92,0.35-3.61,1.04-5.05c0.69-1.44,1.65-2.56,2.89-3.35c1.23-0.79,2.68-1.18,4.33-1.18c1.65,0,3.1,0.39,4.33,1.18
			c1.23,0.79,2.19,1.91,2.87,3.35c0.68,1.44,1.02,3.13,1.02,5.05c0,1.95-0.34,3.64-1.02,5.09c-0.68,1.44-1.63,2.56-2.87,3.35
			C39.99,29.99,38.54,30.38,36.89,30.38z M36.85,28.86c2.1,0,3.72-0.7,4.87-2.09s1.72-3.4,1.72-6.01c0-2.52-0.58-4.49-1.74-5.92
			c-1.16-1.43-2.76-2.15-4.81-2.15c-2.05,0-3.66,0.72-4.83,2.15c-1.17,1.43-1.76,3.4-1.76,5.92c0,2.62,0.57,4.62,1.7,6.01
			C33.14,28.17,34.76,28.86,36.85,28.86z"/>
		<path class="st1" d="M55.46,30.12l-6.47-18.5h1.7l6.14,18.06h-0.96l6.51-18.06h1.92l6.33,18.06h-1L76,11.62h1.63l-6.55,18.5h-1.85
			l-6.51-18.28h1.18l-6.55,18.28H55.46z"/>
		<path class="st1" d="M82.73,30.12V2.89h1.52v13.76l-0.37-0.22c0.42-1.7,1.23-3,2.42-3.9c1.2-0.9,2.7-1.35,4.5-1.35
			c1.65,0,3.09,0.39,4.33,1.17c1.23,0.78,2.19,1.88,2.89,3.31c0.69,1.43,1.04,3.11,1.04,5.03c0,1.95-0.35,3.65-1.04,5.11
			c-0.69,1.46-1.66,2.58-2.9,3.39c-1.25,0.8-2.68,1.2-4.31,1.2c-1.8,0-3.3-0.45-4.5-1.35c-1.2-0.9-2-2.21-2.42-3.94l0.41-0.18v5.22
			H82.73z M90.84,28.86c2.02,0,3.61-0.72,4.77-2.17c1.16-1.44,1.74-3.45,1.74-6.01c0-2.54-0.58-4.51-1.74-5.9
			c-1.16-1.39-2.76-2.09-4.81-2.09c-2.1,0-3.71,0.7-4.83,2.11c-1.12,1.41-1.68,3.39-1.68,5.96c0,2.57,0.56,4.56,1.68,5.98
			C87.09,28.16,88.71,28.86,90.84,28.86z"/>
		<path class="st1" d="M104.23,4.22h2.41v2.37h-2.41V4.22z M104.64,30.12v-18.5h1.52v18.5H104.64z"/>
		<path class="st1" d="M120.25,30.38c-1.73,0-3.22-0.4-4.48-1.2s-2.24-1.92-2.94-3.35s-1.05-3.1-1.05-5c0-1.92,0.35-3.61,1.05-5.07
			c0.7-1.46,1.69-2.58,2.96-3.39c1.27-0.8,2.77-1.2,4.5-1.2c1.21,0,2.37,0.22,3.5,0.67c1.12,0.44,2.05,1.05,2.79,1.81l-0.74,1.33
			c-1.01-0.81-1.95-1.41-2.81-1.78c-0.86-0.37-1.78-0.55-2.74-0.55c-2.1,0-3.76,0.73-5,2.2c-1.23,1.47-1.85,3.47-1.85,6.01
			c0,2.52,0.61,4.48,1.83,5.88c1.22,1.41,2.88,2.11,4.98,2.11c0.96,0,1.88-0.19,2.76-0.56c0.88-0.37,1.82-0.95,2.83-1.74l0.74,1.29
			c-0.76,0.76-1.71,1.38-2.85,1.83C122.59,30.15,121.43,30.38,120.25,30.38z"/>
	</g>
</g>
<polygon class="st0" points="66.18,11.65 198.11,11.65 198.11,11.65 66.18,11.65 "/>
</svg>
