<?xml version="1.0" encoding="utf-8"?>
<!-- Generator: Adobe Illustrator 23.0.1, SVG Export Plug-In . SVG Version: 6.00 Build 0)  -->
<svg version="1.1" id="Lager_1" xmlns="http://www.w3.org/2000/svg" xmlns:xlink="http://www.w3.org/1999/xlink" x="0px" y="0px"
	 viewBox="0 0 131 34" style="enable-background:new 0 0 131 34;" xml:space="preserve">
<style type="text/css">
	.st0{fill:none;}
	.st1{fill:url(#SVGID_1_);}
	.st2{fill:url(#SVGID_2_);}
	.st3{fill:url(#SVGID_3_);}
	.st4{fill:url(#SVGID_4_);}
	.st5{fill:url(#SVGID_5_);}
	.st6{fill:url(#SVGID_6_);}
	.st7{fill:url(#SVGID_7_);}
	.st8{fill:url(#SVGID_8_);}
</style>
<rect x="-1.08" y="-6.22" class="st0" width="4.75" height="8.84"/>
<g>
	<g>
	</g>
</g>
<g>
	<linearGradient id="SVGID_1_" gradientUnits="userSpaceOnUse" x1="109.89" y1="16.5293" x2="-2.9561" y2="16.3315">
		<stop  offset="0" style="stop-color:#FFFFFF"/>
		<stop  offset="0.0849" style="stop-color:#FAF6FB;stop-opacity:0.9915"/>
		<stop  offset="0.2263" style="stop-color:#ECDCF0;stop-opacity:0.9774"/>
		<stop  offset="0.4066" style="stop-color:#D5B2DF;stop-opacity:0.9593"/>
		<stop  offset="0.6188" style="stop-color:#B579C7;stop-opacity:0.9381"/>
		<stop  offset="0.8552" style="stop-color:#8D30A8;stop-opacity:0.9145"/>
		<stop  offset="1" style="stop-color:#720094;stop-opacity:0.9"/>
	</linearGradient>
	<polygon class="st1" points="16.44,26.34 17.59,26.34 17.59,16.77 27.58,16.77 27.58,15.68 17.59,15.68 17.59,7.5 28.15,7.5 
		28.15,6.41 16.44,6.41 	"/>
	<linearGradient id="SVGID_2_" gradientUnits="userSpaceOnUse" x1="109.8907" y1="16.1758" x2="-2.9555" y2="15.978">
		<stop  offset="0" style="stop-color:#FFFFFF"/>
		<stop  offset="0.0849" style="stop-color:#FAF6FB;stop-opacity:0.9915"/>
		<stop  offset="0.2263" style="stop-color:#ECDCF0;stop-opacity:0.9774"/>
		<stop  offset="0.4066" style="stop-color:#D5B2DF;stop-opacity:0.9593"/>
		<stop  offset="0.6188" style="stop-color:#B579C7;stop-opacity:0.9381"/>
		<stop  offset="0.8552" style="stop-color:#8D30A8;stop-opacity:0.9145"/>
		<stop  offset="1" style="stop-color:#720094;stop-opacity:0.9"/>
	</linearGradient>
	<rect x="31.7" y="5.74" class="st2" width="1.15" height="20.61"/>
	<linearGradient id="SVGID_3_" gradientUnits="userSpaceOnUse" x1="109.885" y1="19.391" x2="-2.9611" y2="19.1932">
		<stop  offset="0" style="stop-color:#FFFFFF"/>
		<stop  offset="0.0849" style="stop-color:#FAF6FB;stop-opacity:0.9915"/>
		<stop  offset="0.2263" style="stop-color:#ECDCF0;stop-opacity:0.9774"/>
		<stop  offset="0.4066" style="stop-color:#D5B2DF;stop-opacity:0.9593"/>
		<stop  offset="0.6188" style="stop-color:#B579C7;stop-opacity:0.9381"/>
		<stop  offset="0.8552" style="stop-color:#8D30A8;stop-opacity:0.9145"/>
		<stop  offset="1" style="stop-color:#720094;stop-opacity:0.9"/>
	</linearGradient>
	<path class="st3" d="M46.37,12.9c-0.93-0.6-2.03-0.9-3.28-0.9s-2.34,0.3-3.28,0.9c-0.93,0.6-1.66,1.44-2.18,2.53
		c-0.52,1.09-0.78,2.37-0.78,3.82c0,1.47,0.26,2.76,0.78,3.85c0.52,1.09,1.25,1.94,2.18,2.53c0.93,0.6,2.03,0.9,3.28,0.9
		s2.34-0.3,3.28-0.9c0.93-0.6,1.66-1.44,2.17-2.53c0.51-1.09,0.77-2.38,0.77-3.85c0-1.46-0.26-2.73-0.77-3.82
		C48.03,14.35,47.31,13.5,46.37,12.9z M46.75,23.81c-0.87,1.05-2.1,1.58-3.68,1.58c-1.59,0-2.81-0.53-3.67-1.58
		c-0.86-1.05-1.29-2.57-1.29-4.55c0-1.9,0.44-3.4,1.33-4.48c0.89-1.08,2.1-1.62,3.65-1.62s2.76,0.54,3.64,1.62
		c0.88,1.08,1.32,2.58,1.32,4.48C48.05,21.24,47.62,22.76,46.75,23.81z"/>
	<linearGradient id="SVGID_4_" gradientUnits="userSpaceOnUse" x1="109.885" y1="19.4221" x2="-2.9612" y2="19.2243">
		<stop  offset="0" style="stop-color:#FFFFFF"/>
		<stop  offset="0.0849" style="stop-color:#FAF6FB;stop-opacity:0.9915"/>
		<stop  offset="0.2263" style="stop-color:#ECDCF0;stop-opacity:0.9774"/>
		<stop  offset="0.4066" style="stop-color:#D5B2DF;stop-opacity:0.9593"/>
		<stop  offset="0.6188" style="stop-color:#B579C7;stop-opacity:0.9381"/>
		<stop  offset="0.8552" style="stop-color:#8D30A8;stop-opacity:0.9145"/>
		<stop  offset="1" style="stop-color:#720094;stop-opacity:0.9"/>
	</linearGradient>
	<polygon class="st4" points="67.89,24.93 63.48,12.34 62.02,12.34 57.47,24.97 53.18,12.34 51.89,12.34 56.79,26.34 58.22,26.34 
		62.72,13.77 67.21,26.34 68.6,26.34 73.56,12.34 72.33,12.34 	"/>
	<linearGradient id="SVGID_5_" gradientUnits="userSpaceOnUse" x1="109.8906" y1="16.1889" x2="-2.9555" y2="15.9911">
		<stop  offset="0" style="stop-color:#FFFFFF"/>
		<stop  offset="0.0849" style="stop-color:#FAF6FB;stop-opacity:0.9915"/>
		<stop  offset="0.2263" style="stop-color:#ECDCF0;stop-opacity:0.9774"/>
		<stop  offset="0.4066" style="stop-color:#D5B2DF;stop-opacity:0.9593"/>
		<stop  offset="0.6188" style="stop-color:#B579C7;stop-opacity:0.9381"/>
		<stop  offset="0.8552" style="stop-color:#8D30A8;stop-opacity:0.9145"/>
		<stop  offset="1" style="stop-color:#720094;stop-opacity:0.9"/>
	</linearGradient>
	<path class="st5" d="M86.55,12.89c-0.93-0.59-2.03-0.88-3.28-0.88c-1.36,0-2.5,0.34-3.4,1.02c-0.69,0.52-1.21,1.22-1.55,2.08V5.74
		h-1.15v20.61h1.18v-2.86c0.35,0.85,0.86,1.53,1.53,2.03c0.91,0.68,2.04,1.02,3.4,1.02c1.23,0,2.32-0.3,3.26-0.91
		c0.94-0.61,1.67-1.46,2.2-2.56c0.52-1.1,0.78-2.39,0.78-3.86c0-1.46-0.26-2.72-0.78-3.81C88.21,14.31,87.49,13.48,86.55,12.89z
		 M86.92,23.75c-0.88,1.09-2.08,1.64-3.61,1.64c-1.61,0-2.83-0.54-3.68-1.61s-1.27-2.58-1.27-4.52s0.42-3.44,1.27-4.51
		s2.07-1.6,3.65-1.6c1.55,0,2.76,0.53,3.64,1.58c0.88,1.05,1.32,2.54,1.32,4.47C88.23,21.15,87.79,22.66,86.92,23.75z"/>
	<linearGradient id="SVGID_6_" gradientUnits="userSpaceOnUse" x1="109.9056" y1="7.6674" x2="-2.9406" y2="7.4696">
		<stop  offset="0" style="stop-color:#FFFFFF"/>
		<stop  offset="0.0849" style="stop-color:#FAF6FB;stop-opacity:0.9915"/>
		<stop  offset="0.2263" style="stop-color:#ECDCF0;stop-opacity:0.9774"/>
		<stop  offset="0.4066" style="stop-color:#D5B2DF;stop-opacity:0.9593"/>
		<stop  offset="0.6188" style="stop-color:#B579C7;stop-opacity:0.9381"/>
		<stop  offset="0.8552" style="stop-color:#8D30A8;stop-opacity:0.9145"/>
		<stop  offset="1" style="stop-color:#720094;stop-opacity:0.9"/>
	</linearGradient>
	<rect x="93.19" y="6.74" class="st6" width="1.82" height="1.79"/>
	<linearGradient id="SVGID_7_" gradientUnits="userSpaceOnUse" x1="109.8851" y1="19.3715" x2="-2.9611" y2="19.1737">
		<stop  offset="0" style="stop-color:#FFFFFF"/>
		<stop  offset="0.0849" style="stop-color:#FAF6FB;stop-opacity:0.9915"/>
		<stop  offset="0.2263" style="stop-color:#ECDCF0;stop-opacity:0.9774"/>
		<stop  offset="0.4066" style="stop-color:#D5B2DF;stop-opacity:0.9593"/>
		<stop  offset="0.6188" style="stop-color:#B579C7;stop-opacity:0.9381"/>
		<stop  offset="0.8552" style="stop-color:#8D30A8;stop-opacity:0.9145"/>
		<stop  offset="1" style="stop-color:#720094;stop-opacity:0.9"/>
	</linearGradient>
	<rect x="93.5" y="12.34" class="st7" width="1.15" height="14"/>
	<linearGradient id="SVGID_8_" gradientUnits="userSpaceOnUse" x1="109.8852" y1="19.2824" x2="-2.9609" y2="19.0846">
		<stop  offset="0" style="stop-color:#FFFFFF"/>
		<stop  offset="0.0849" style="stop-color:#FAF6FB;stop-opacity:0.9915"/>
		<stop  offset="0.2263" style="stop-color:#ECDCF0;stop-opacity:0.9774"/>
		<stop  offset="0.4066" style="stop-color:#D5B2DF;stop-opacity:0.9593"/>
		<stop  offset="0.6188" style="stop-color:#B579C7;stop-opacity:0.9381"/>
		<stop  offset="0.8552" style="stop-color:#8D30A8;stop-opacity:0.9145"/>
		<stop  offset="1" style="stop-color:#720094;stop-opacity:0.9"/>
	</linearGradient>
	<path class="st8" d="M107.15,24.97c-0.66,0.28-1.36,0.42-2.09,0.42c-1.59,0-2.84-0.53-3.77-1.6c-0.92-1.06-1.39-2.55-1.39-4.45
		c0-1.92,0.47-3.44,1.4-4.55c0.93-1.11,2.19-1.67,3.78-1.67c0.73,0,1.42,0.14,2.07,0.42c0.65,0.28,1.36,0.73,2.13,1.34l0.56-1.01
		c-0.56-0.58-1.26-1.04-2.11-1.37s-1.73-0.5-2.65-0.5c-1.31,0-2.44,0.3-3.4,0.91c-0.96,0.61-1.71,1.46-2.24,2.56
		c-0.53,1.1-0.8,2.38-0.8,3.84c0,1.44,0.27,2.7,0.8,3.78c0.53,1.08,1.27,1.93,2.23,2.53s2.08,0.91,3.39,0.91
		c0.9,0,1.77-0.17,2.63-0.52c0.86-0.34,1.58-0.81,2.16-1.39l-0.56-0.98C108.52,24.25,107.81,24.69,107.15,24.97z"/>
</g>
</svg>
